<?xml version="1.0" standalone="no"?>
<!DOCTYPE svg PUBLIC "-//W3C//DTD SVG 20010904//EN"
 "http://www.w3.org/TR/2001/REC-SVG-20010904/DTD/svg10.dtd">
<svg version="1.0" xmlns="http://www.w3.org/2000/svg"
 width="512.000000pt" height="512.000000pt" viewBox="0 0 512.000000 512.000000"
 preserveAspectRatio="xMidYMid meet">

<g transform="translate(0.000000,512.000000) scale(0.100000,-0.100000)"
fill="#000000" stroke="none">
<path d="M3175 4287 c-103 -49 -165 -160 -150 -267 l7 -49 -44 -18 c-23 -9
-95 -42 -158 -74 -468 -230 -778 -603 -865 -1039 -10 -47 -19 -91 -21 -98 -2
-8 -34 18 -76 61 -229 231 -509 356 -798 357 -63 0 -144 -5 -180 -11 -85 -13
-250 -69 -340 -114 l-72 -36 -43 40 c-58 53 -107 73 -181 73 -138 1 -254 -115
-254 -253 0 -62 36 -143 82 -184 54 -49 101 -67 173 -68 81 0 136 25 190 85
46 51 65 97 65 157 l0 34 46 -7 c229 -31 443 -216 592 -511 149 -296 228 -618
298 -1210 9 -77 22 -150 30 -162 40 -63 283 -128 619 -165 157 -17 769 -17
920 0 375 42 595 106 624 181 5 14 13 55 17 91 9 93 58 285 98 388 144 374
404 654 745 801 104 45 111 46 111 19 0 -40 49 -126 90 -158 132 -105 314 -65
393 85 29 54 30 163 2 219 -22 47 -73 99 -117 122 -43 22 -145 30 -192 14 -20
-6 -57 -27 -82 -47 l-46 -34 -61 39 c-252 160 -438 227 -658 239 -219 11 -401
-47 -579 -186 l-65 -50 -33 52 c-53 84 -148 285 -180 383 -81 244 -93 479 -35
669 20 65 74 185 83 185 4 0 27 -9 51 -20 154 -70 347 49 350 216 4 157 -89
262 -241 271 -53 3 -74 0 -115 -20z"/>
</g>
</svg>
